<svg width="136" height="56" viewBox="0 0 136 56" fill="none" xmlns="http://www.w3.org/2000/svg">
<path d="M81.4728 1.41675C66.5228 1.41675 54.4165 13.5501 54.4165 28.5001C54.4165 43.4501 66.5228 55.5834 81.4728 55.5834C96.4498 55.5834 108.583 43.4501 108.583 28.5001C108.583 13.5501 96.4498 1.41675 81.4728 1.41675ZM81.4998 50.1668C69.529 50.1668 59.8332 40.4709 59.8332 28.5001C59.8332 16.5292 69.529 6.83342 81.4998 6.83342C93.4707 6.83342 103.167 16.5292 103.167 28.5001C103.167 40.4709 93.4707 50.1668 81.4998 50.1668Z" fill="#E20A17"/>
<path d="M82.854 14.9583H78.7915V31.2083L93.0103 39.7395L95.0415 36.4083L82.854 29.177V14.9583Z" fill="#E20A17"/>
<path d="M2.47609 44H22.8921L24.3441 37.312H13.1681L19.4601 31.24C21.9681 28.82 23.3761 27.28 23.3761 22.308C23.3761 16.94 21.0001 13.64 12.7721 13.64C8.24009 13.64 5.11609 14.08 2.60809 14.828V21.56C4.85209 20.856 7.84409 20.46 10.5721 20.46C14.8401 20.46 16.0721 20.944 16.0721 23.452C16.0721 25.608 15.2801 26.356 13.8281 27.72L2.47609 38.192V44ZM41.1057 26.884V32.472H34.0217L44.0977 14.08H36.0897L25.7497 32.692V38.632H41.1057V44H48.3217V26.884H41.1057ZM112.375 14.08V20.592H126.499V22.264C126.499 26.048 116.775 27.368 116.775 37.312V44H123.991V37.312C123.991 30.8 133.759 29.524 133.759 22.484V14.08H112.375Z" fill="#E20A17"/>
<path d="M2.47609 44H22.8921L24.3441 37.312H13.1681L19.4601 31.24C21.9681 28.82 23.3761 27.28 23.3761 22.308C23.3761 16.94 21.0001 13.64 12.7721 13.64C8.24009 13.64 5.11609 14.08 2.60809 14.828V21.56C4.85209 20.856 7.84409 20.46 10.5721 20.46C14.8401 20.46 16.0721 20.944 16.0721 23.452C16.0721 25.608 15.2801 26.356 13.8281 27.72L2.47609 38.192V44ZM41.1057 26.884V32.472H34.0217L44.0977 14.08H36.0897L25.7497 32.692V38.632H41.1057V44H48.3217V26.884H41.1057ZM112.375 14.08V20.592H126.499V22.264C126.499 26.048 116.775 27.368 116.775 37.312V44H123.991V37.312C123.991 30.8 133.759 29.524 133.759 22.484V14.08H112.375Z" fill="#E20A17"/>
</svg>
