<svg width="66" height="75" viewBox="0 0 66 75" fill="none" xmlns="http://www.w3.org/2000/svg">
<path d="M33 0L0 13.6364V34.0909C0 53.0114 14.08 70.7045 33 75C51.92 70.7045 66 53.0114 66 34.0909V13.6364L33 0Z" fill="#E20A17"/>
<path d="M15.0684 48.7H21.6684V41.836H28.5764V35.236H21.6684V28.372H15.0684V35.236H8.16039V41.836H15.0684V48.7ZM32.314 52H52.73L54.182 45.312H43.006L49.298 39.24C51.806 36.82 53.214 35.28 53.214 30.308C53.214 24.94 50.838 21.64 42.61 21.64C38.078 21.64 34.954 22.08 32.446 22.828V29.56C34.69 28.856 37.682 28.46 40.41 28.46C44.678 28.46 45.91 28.944 45.91 31.452C45.91 33.608 45.118 34.356 43.666 35.72L32.314 46.192V52Z" fill="black"/>
</svg>
