<svg width="64" height="71" viewBox="0 0 64 71" fill="none" xmlns="http://www.w3.org/2000/svg">
<path d="M51.4505 44.3623H21.5494C15.1496 44.3623 9.94482 50.248 9.94482 57.5001C9.94482 64.7522 15.1496 70.6379 21.5494 70.6379H51.4505C57.8503 70.6379 63.0551 64.7522 63.0551 57.5001C63.0551 50.248 57.8503 44.3623 51.4505 44.3623ZM23.8597 63.9639L17.035 57.2111L18.8939 55.3718L23.8597 60.2853L33.2071 51.0363L35.066 52.8756L23.8597 63.9639Z" fill="#E20A17"/>
<path d="M61.188 50.6759L35.5809 24.9135C38.1135 18.4021 36.7065 10.7584 31.3599 5.37941C25.732 -0.282654 17.2901 -1.41507 10.5366 1.69907L22.6366 13.8725L14.1947 22.3656L1.81325 10.1922C-1.56352 16.9866 -0.156533 25.4797 5.47141 31.1418C10.818 36.5207 18.4157 37.9362 24.8878 35.3883L50.495 61.1507C51.6205 62.2831 53.3089 62.2831 54.4345 61.1507L60.9067 54.6393C62.3136 53.5069 62.3136 51.5252 61.188 50.6759Z" fill="#E20A17"/>
</svg>
