<svg width="89" height="70" viewBox="0 0 89 70" fill="none" xmlns="http://www.w3.org/2000/svg">
<path d="M11.9582 10.6667C11.9582 9.13125 10.7019 7.875 9.1665 7.875C7.63109 7.875 6.37484 9.13125 6.37484 10.6667V21.8333H0.791504V38.5833H17.5415V21.8333H11.9582V10.6667ZM23.1248 49.75C23.1248 53.3792 25.4698 56.45 28.7082 57.6225V69.2917H34.2915V57.6225C37.5298 56.4779 39.8748 53.4071 39.8748 49.75V44.1667H23.1248V49.75ZM0.791504 49.75C0.791504 53.3792 3.1365 56.45 6.37484 57.6225V69.2917H11.9582V57.6225C15.1965 56.45 17.5415 53.3792 17.5415 49.75V44.1667H0.791504V49.75ZM56.6248 21.8333V10.6667C56.6248 9.13125 55.3686 7.875 53.8332 7.875C52.2978 7.875 51.0415 9.13125 51.0415 10.6667V21.8333H45.4582V38.5833H62.2082V21.8333H56.6248ZM34.2915 10.6667C34.2915 9.13125 33.0353 7.875 31.4998 7.875C29.9644 7.875 28.7082 9.13125 28.7082 10.6667V21.8333H23.1248V38.5833H39.8748V21.8333H34.2915V10.6667ZM45.4582 49.75C45.4582 53.3792 47.8032 56.45 51.0415 57.6225V69.2917H56.6248V57.6225C59.8632 56.4779 62.2082 53.4071 62.2082 49.75V44.1667H45.4582V49.75Z" fill="#E20A17"/>
<path d="M68.4807 0C57.6707 0 48.917 8.77333 48.917 19.5833C48.917 30.3933 57.6707 39.1667 68.4807 39.1667C79.3103 39.1667 88.0837 30.3933 88.0837 19.5833C88.0837 8.77333 79.3103 0 68.4807 0ZM76.7841 31.3333L68.5003 26.3396L60.2166 31.3333L62.4099 21.9137L55.1053 15.5883L64.7403 14.7658L68.5003 5.875L72.2603 14.7463L81.8953 15.5688L74.5907 21.8942L76.7841 31.3333Z" fill="#E20A17"/>
</svg>
